<?xml version="1.0" standalone="no"?>
<!DOCTYPE svg PUBLIC "-//W3C//DTD SVG 20010904//EN"
 "http://www.w3.org/TR/2001/REC-SVG-20010904/DTD/svg10.dtd">
<svg version="1.0" xmlns="http://www.w3.org/2000/svg"
 width="3000.000000pt" height="3000.000000pt" viewBox="0 0 3000.000000 3000.000000"
 preserveAspectRatio="xMidYMid meet">
<metadata>
Created by potrace 1.14, written by Peter Selinger 2001-2017
</metadata>
<g transform="translate(0.000000,3000.000000) scale(0.100000,-0.100000)"
fill="#000000" stroke="none">
<path d="M0 15000 l0 -15000 15000 0 15000 0 0 15000 0 15000 -15000 0 -15000
0 0 -15000z m16115 8660 c991 -72 1932 -447 2833 -1127 328 -247 504 -403 878
-777 512 -512 906 -983 1417 -1693 342 -475 1066 -1563 1123 -1688 78 -169 24
-261 -241 -410 -235 -132 -817 -465 -1255 -718 -449 -259 -670 -394 -670 -407
0 -5 123 -224 273 -487 489 -854 650 -1168 804 -1563 194 -498 314 -1000 370
-1540 21 -208 24 -736 5 -920 -97 -934 -420 -1671 -1020 -2324 -271 -295 -581
-539 -1247 -981 -609 -404 -1123 -713 -2300 -1387 -638 -365 -892 -504 -1170
-639 -1147 -556 -2014 -746 -2890 -633 -910 116 -1778 596 -2493 1377 -467
510 -1052 1260 -2037 2612 -225 308 -507 692 -627 854 -121 162 -228 311 -239
333 -29 58 -35 120 -15 173 29 76 108 136 377 289 1108 633 2062 1188 2098
1222 11 10 -54 100 -396 541 -536 692 -577 746 -728 957 -537 752 -873 1423
-1035 2066 -215 856 -151 1746 181 2533 256 607 668 1127 1196 1514 271 198
1467 909 2213 1315 862 470 1766 902 2410 1153 490 191 1045 320 1525 354 174
12 498 13 660 1z"/>
<path d="M15325 21984 c-570 -56 -1162 -240 -1620 -504 -71 -42 -247 -154
-299 -192 -6 -4 -1 -15 11 -25 12 -10 194 -162 405 -339 589 -493 714 -614
1055 -1019 437 -520 756 -920 1576 -1975 301 -388 573 -730 602 -761 69 -72
114 -94 185 -94 74 1 106 17 480 237 366 215 681 398 1607 932 613 353 823
485 823 516 0 33 -435 611 -811 1080 -555 692 -1005 1140 -1493 1487 -554 394
-1125 604 -1801 662 -164 15 -550 12 -720 -5z"/>
<path d="M11430 20053 c-315 -32 -700 -165 -977 -336 -487 -303 -822 -791
-973 -1422 -49 -202 -64 -330 -64 -545 0 -404 86 -738 294 -1150 120 -236 273
-461 760 -1121 603 -816 3020 -3946 3040 -3937 3 2 290 167 638 368 397 230
630 370 627 378 -14 41 -299 415 -1079 1417 -484 622 -1162 1492 -1506 1935
-759 976 -1179 1517 -1300 1670 -153 195 -182 282 -121 367 59 82 113 117 631
413 553 315 1884 1082 1894 1091 13 12 -125 177 -240 289 -391 378 -925 595
-1452 588 -75 0 -153 -3 -172 -5z"/>
<path d="M13733 17552 c-354 -202 -643 -371 -643 -376 0 -21 244 -346 761
-1011 2199 -2829 2543 -3289 2825 -3780 254 -443 449 -918 558 -1355 88 -358
120 -628 142 -1195 7 -195 8 -205 15 -207 5 -2 819 540 1044 695 197 136 431
309 590 436 142 114 374 342 469 461 384 482 563 1025 543 1645 -23 687 -279
1479 -736 2277 -176 308 -545 875 -567 871 -15 -3 -1232 -700 -1501 -860 -273
-163 -341 -191 -428 -180 -113 16 -166 65 -398 367 -246 319 -619 798 -1128
1446 -233 297 -527 674 -654 837 -126 163 -234 296 -240 296 -5 0 -299 -165
-652 -367z"/>
<path d="M10910 11795 c-47 -26 -148 -81 -225 -123 -115 -62 -650 -370 -773
-444 l-33 -20 39 -72 c385 -714 1564 -2131 2197 -2641 184 -149 481 -316 708
-399 756 -279 1591 -136 2232 381 142 114 320 301 393 413 322 488 405 1222
196 1723 -31 74 -105 197 -118 197 -10 0 -380 -208 -1071 -603 -192 -110 -511
-297 -708 -415 -197 -118 -386 -227 -420 -241 -50 -20 -79 -25 -152 -26 -170
0 -224 47 -548 475 -456 604 -1297 1671 -1367 1737 -50 46 -151 94 -213 99
-47 5 -60 1 -137 -41z"/>
</g>
</svg>
